# xmcd
#
# Track frame offsets: 
#        150
#        13407
#        25181
#        37419
#        50589
#        62754
#        76166
#        87540
#        100615
#        110680
#        121956
#        130974
#        141347
#        153810
#        164785
#        177552
#        190741
#        199622
#        211849
#        224869
#
# Disc length: 3164 seconds
#
# Revision: 0
# Processed by: cddbd v1.5.2PL0 Copyright (c) Steve Scherf et al.
# Submitted via: ExactAudioCopyFreeDBPlugin 1.0
#
DISCID=300c5a14
DTITLE=Sampler - Bluegrass Hit Festival 04
DYEAR=1900
DGENRE=Bluegrass
TTITLE0=Bill Monroe - The coupon song
TTITLE1=Lester Flatt and Earl Scruggs - If I should wander back to you
TTITLE2=The Bailey Brothers - John Henry
TTITLE3=The Stanley Brothers - Little glass of wine
TTITLE4=Bill Monroe - Goodbye old pal
TTITLE5=Curly Fox - Come here soon
TTITLE6=The Armstrong Twins - Baby girl
TTITLE7=Lester Flatt and Earl Scruggs - Dim lights, thick smoke
TTITLE8=The McCormick Brothers - Banjo twist
TTITLE9=Bill Monroe - Blue grass special
TTITLE10=Jimmy Martin - Save It, Save It
TTITLE11=The Stanley Brothers - Are you waiting just for me
TTITLE12=The Hodges BrothersThe Hodges Brothers - It won't be long
TTITLE13=Lester Flatt and Earl Scruggs - Dear Old Dixie
TTITLE14=Bill Monroe - True life blues
TTITLE15=The Bailey Brothers - I will never marry
TTITLE16=The Stanley Brothers - Little birdie
TTITLE17=The Armstrong Twins - Arkansas special
TTITLE18=Lester Flatt and Earl Scruggs - I'll go stepping too
TTITLE19=Bill Monroe - Were you there
EXTD=
EXTT0=
EXTT1=
EXTT2=
EXTT3=
EXTT4=
EXTT5=
EXTT6=
EXTT7=
EXTT8=
EXTT9=
EXTT10=
EXTT11=
EXTT12=
EXTT13=
EXTT14=
EXTT15=
EXTT16=
EXTT17=
EXTT18=
EXTT19=
PLAYORDER=
